STARTFONT 2.1
COMMENT Exported by Fony v1.4.7
FONT 16X22TG
SIZE 22 96 96
FONTBOUNDINGBOX 16 21 0 -6
STARTPROPERTIES 6
COPYRIGHT "Tangar @ http://tangar.info for TomeNET @ http://tomenet.eu"
RESOLUTION_X 96
RESOLUTION_Y 96
FONT_ASCENT 16
FONT_DESCENT 6
DEFAULT_CHAR 31
ENDPROPERTIES
CHARS 256
STARTCHAR 000
ENCODING 0
SWIDTH 1152 0
DWIDTH 16 0
BBX 16 22 0 -6
BITMAP
8001
4001
4002
2002
1004
0808
0808
0410
0220
0120
00C0
0080
0140
0240
0220
0410
0410
0808
1004
2004
4002
C001
ENDCHAR
STARTCHAR 001
ENCODING 1
SWIDTH 1152 0
DWIDTH 16 0
BBX 15 1 1 -4
BITMAP
AAAA
ENDCHAR
STARTCHAR 002
ENCODING 2
SWIDTH 1152 0
DWIDTH 16 0
BBX 16 22 0 -6
BITMAP
FFFF
FFFF
FFFF
FFFF
FFFF
FFFF
FFFF
FFFF
FFFF
FFFF
FFFF
FFFF
FFFF
FFFF
FFFF
FFFF
FFFF
FFFF
FFFF
FFFF
FFFF
FFFF
ENDCHAR
STARTCHAR 003
ENCODING 3
SWIDTH 1152 0
DWIDTH 16 0
BBX 14 1 1 -3
BITMAP
DB6C
ENDCHAR
STARTCHAR 004
ENCODING 4
SWIDTH 1152 0
DWIDTH 16 0
BBX 3 3 7 -2
BITMAP
C0
A0
E0
ENDCHAR
STARTCHAR 005
ENCODING 5
SWIDTH 1152 0
DWIDTH 16 0
BBX 16 3 0 -2
BITMAP
AAAA
0000
5249
ENDCHAR
STARTCHAR 006
ENCODING 6
SWIDTH 1152 0
DWIDTH 16 0
BBX 16 5 0 -2
BITMAP
0820
1450
8922
0280
5109
ENDCHAR
STARTCHAR 007
ENCODING 7
SWIDTH 1152 0
DWIDTH 16 0
BBX 15 1 0 -2
BITMAP
EEEE
ENDCHAR
STARTCHAR 008
ENCODING 8
SWIDTH 1152 0
DWIDTH 16 0
BBX 16 4 0 3
BITMAP
4444
4444
AAAA
1111
ENDCHAR
STARTCHAR 009
ENCODING 9
SWIDTH 1152 0
DWIDTH 16 0
BBX 6 4 6 1
BITMAP
84
CC
78
30
ENDCHAR
STARTCHAR 010
ENCODING 10
SWIDTH 1152 0
DWIDTH 16 0
BBX 16 20 0 -6
BITMAP
FE3F
FF3F
FF3F
FE1F
0000
E0FF
F3FF
F3FF
F3FF
E1FF
0000
FE3F
FF3F
FF3F
FF1F
0000
0000
F1FF
F3FF
F1FF
ENDCHAR
STARTCHAR 011
ENCODING 11
SWIDTH 1152 0
DWIDTH 16 0
BBX 16 20 0 -6
BITMAP
FF3F
FF3F
FF3F
FF3F
0000
F3FF
F3FF
F3FF
F3FF
F3FF
0000
FF3F
FF3F
FF3F
FF3F
0000
0000
F3FF
F3FF
F3FF
ENDCHAR
STARTCHAR 012
ENCODING 12
SWIDTH 1152 0
DWIDTH 16 0
BBX 16 20 0 -6
BITMAP
FF3F
FF3F
FF2F
FF3F
0000
F3FF
D3FF
D3FF
F3FF
F3FF
0000
FF3F
FF3F
FF2F
FF3F
0000
0000
D3FF
F3FF
F3FF
ENDCHAR
STARTCHAR 013
ENCODING 13
SWIDTH 1152 0
DWIDTH 16 0
BBX 16 22 0 -6
BITMAP
FFFF
FFFF
7DEF
3806
87F0
CC19
E80B
6C1B
2FFB
2FFA
CFF0
C3E0
EC1B
6FFB
2FFB
17F6
C1C1
F80F
7DEF
38C7
8210
C739
ENDCHAR
STARTCHAR 014
ENCODING 14
SWIDTH 1152 0
DWIDTH 16 0
BBX 16 22 0 -6
BITMAP
0020
0030
0070
0078
08F8
18DC
1CBC
3DFC
2F7E
2E7E
7DBF
7DFD
F3DF
F76F
F76F
CFB2
0FF8
0FF8
0FFC
3FFC
3FFC
FFFF
ENDCHAR
STARTCHAR 015
ENCODING 15
SWIDTH 1152 0
DWIDTH 16 0
BBX 16 20 0 -6
BITMAP
0300
0780
0FC0
0F60
1F70
3FF0
3FF0
3FB0
7F48
7CF0
DBBC
F7BC
F7FC
2EFE
0FFE
1FFE
1FFF
3FF3
3FFF
3FFF
ENDCHAR
STARTCHAR 016
ENCODING 16
SWIDTH 1152 0
DWIDTH 16 0
BBX 16 22 0 -6
BITMAP
FFFF
FFFF
C4D3
FFFF
D347
FFFF
CD1B
FFFF
F46B
FFFF
D1A3
FFFF
C683
FFFF
DA07
FFFF
E813
FFFF
E043
FFFF
FFFF
FFFF
ENDCHAR
STARTCHAR 017
ENCODING 17
SWIDTH 1152 0
DWIDTH 16 0
BBX 16 22 0 -6
BITMAP
FFFF
FFFF
C4D3
C9A3
D347
E68F
CD1B
DA37
F46B
E8D3
D1A3
E343
C683
CD03
DA07
F40B
E813
D023
E043
C083
FFFF
FFFF
ENDCHAR
STARTCHAR 018
ENCODING 18
SWIDTH 1152 0
DWIDTH 16 0
BBX 16 22 0 -6
BITMAP
FFFF
FFFF
C703
CB03
D303
E703
CF03
DB03
F703
EB03
D303
E303
C703
CF03
DB03
F703
EB03
D303
E303
C303
FFFF
FFFF
ENDCHAR
STARTCHAR 019
ENCODING 19
SWIDTH 1152 0
DWIDTH 16 0
BBX 16 22 0 -6
BITMAP
FFFF
FFFF
C927
FFFF
E493
FFFF
D24B
FFFF
C003
FFFF
C9DB
FFFF
CDD3
FFFF
D9F3
FFFF
C183
FFFF
C7E3
FFFF
FFFF
FFFF
ENDCHAR
STARTCHAR 020
ENCODING 20
SWIDTH 1152 0
DWIDTH 16 0
BBX 16 22 0 -6
BITMAP
FFFF
FFFF
C927
D24B
E493
C927
D24B
FFFF
C003
C193
C9DB
DBB3
CDD3
CB9B
D9F3
CFA3
C183
C7E3
C7E3
C3C3
FFFF
FFFF
ENDCHAR
STARTCHAR 021
ENCODING 21
SWIDTH 1152 0
DWIDTH 16 0
BBX 16 22 0 -6
BITMAP
FFFF
FFFF
CB03
D303
E703
CB03
D303
FFFF
C003
C193
C9DB
DBB3
CDD3
CB9B
D9F3
CFA3
C183
C7E3
C7E3
C3C3
FFFF
FFFF
ENDCHAR
STARTCHAR 022
ENCODING 22
SWIDTH 1152 0
DWIDTH 16 0
BBX 16 22 0 -6
BITMAP
8001
4001
4002
2002
1004
0808
0808
0410
0220
0120
00C0
0080
0140
0240
0220
0410
0410
0808
1004
2004
4002
C001
ENDCHAR
STARTCHAR 023
ENCODING 23
SWIDTH 1152 0
DWIDTH 16 0
BBX 16 22 0 -6
BITMAP
8001
4001
4002
2002
1004
0808
0808
0410
0220
0120
00C0
0080
0140
0240
0220
0410
0410
0808
1004
2004
4002
C001
ENDCHAR
STARTCHAR 024
ENCODING 24
SWIDTH 1152 0
DWIDTH 16 0
BBX 16 22 0 -6
BITMAP
8001
4001
4002
2002
1004
0808
0808
0410
0220
0120
00C0
0080
0140
0240
0220
0410
0410
0808
1004
2004
4002
C001
ENDCHAR
STARTCHAR 025
ENCODING 25
SWIDTH 1152 0
DWIDTH 16 0
BBX 16 22 0 -6
BITMAP
8001
4001
4002
2002
1004
0808
0808
0410
0220
0120
00C0
0080
0140
0240
0220
0410
0410
0808
1004
2004
4002
C001
ENDCHAR
STARTCHAR 026
ENCODING 26
SWIDTH 1152 0
DWIDTH 16 0
BBX 16 22 0 -6
BITMAP
8001
4001
4002
2002
1004
0808
0808
0410
0220
0120
00C0
0080
0140
0240
0220
0410
0410
0808
1004
2004
4002
C001
ENDCHAR
STARTCHAR 027
ENCODING 27
SWIDTH 1152 0
DWIDTH 16 0
BBX 16 22 0 -6
BITMAP
8001
4001
4002
2002
1004
0808
0808
0410
0220
0120
00C0
0080
0140
0240
0220
0410
0410
0808
1004
2004
4002
C001
ENDCHAR
STARTCHAR 028
ENCODING 28
SWIDTH 1152 0
DWIDTH 16 0
BBX 16 22 0 -6
BITMAP
8001
4001
4002
2002
1004
0808
0808
0410
0220
0120
00C0
0080
0140
0240
0220
0410
0410
0808
1004
2004
4002
C001
ENDCHAR
STARTCHAR 029
ENCODING 29
SWIDTH 1152 0
DWIDTH 16 0
BBX 16 22 0 -6
BITMAP
8001
4001
4002
2002
1004
0808
0808
0410
0220
0120
00C0
0080
0140
0240
0220
0410
0410
0808
1004
2004
4002
C001
ENDCHAR
STARTCHAR 030
ENCODING 30
SWIDTH 1152 0
DWIDTH 16 0
BBX 16 22 0 -6
BITMAP
8001
4001
4002
2002
1004
0808
0808
0410
0220
0120
00C0
0080
0140
0240
0220
0410
0410
0808
1004
2004
4002
C001
ENDCHAR
STARTCHAR 031
ENCODING 31
SWIDTH 1152 0
DWIDTH 16 0
BBX 16 22 0 -6
BITMAP
8001
4001
4002
2002
1004
0808
0808
0410
0220
0120
00C0
0080
0140
0240
0220
0410
0410
0808
1004
2004
4002
C001
ENDCHAR
STARTCHAR 032
ENCODING 32
SWIDTH 1152 0
DWIDTH 16 0
BBX 0 0 0 0
BITMAP
ENDCHAR
STARTCHAR 033
ENCODING 33
SWIDTH 1152 0
DWIDTH 16 0
BBX 5 17 6 -4
BITMAP
30
70
F8
F8
C8
C8
F8
F8
F8
F0
F0
70
20
00
20
70
20
ENDCHAR
STARTCHAR 034
ENCODING 34
SWIDTH 1152 0
DWIDTH 16 0
BBX 8 4 5 7
BITMAP
E7
E7
E7
C3
ENDCHAR
STARTCHAR 035
ENCODING 35
SWIDTH 1152 0
DWIDTH 16 0
BBX 10 9 3 0
BITMAP
7380
FFC0
FFC0
7380
7380
7380
FFC0
FFC0
7380
ENDCHAR
STARTCHAR 036
ENCODING 36
SWIDTH 1152 0
DWIDTH 16 0
BBX 11 20 3 -5
BITMAP
0100
0300
0300
1FC0
3FE0
6660
6620
6600
7E00
3F00
07C0
06E0
0660
8660
E6E0
7FE0
3F80
0C00
0C00
0800
ENDCHAR
STARTCHAR 037
ENCODING 37
SWIDTH 1152 0
DWIDTH 16 0
BBX 14 15 1 -3
BITMAP
0020
7060
F8E0
88C0
8980
7180
0300
0300
0338
0644
0E44
0C44
1838
3800
3000
ENDCHAR
STARTCHAR 038
ENCODING 38
SWIDTH 1152 0
DWIDTH 16 0
BBX 13 15 2 -3
BITMAP
0300
0FC0
0CC0
1860
18C0
0DC0
0F00
0F00
3B88
60D8
E058
F070
7FF8
3FD8
0F08
ENDCHAR
STARTCHAR 039
ENCODING 39
SWIDTH 1152 0
DWIDTH 16 0
BBX 5 7 6 6
BITMAP
70
78
78
30
30
20
C0
ENDCHAR
STARTCHAR 040
ENCODING 40
SWIDTH 1152 0
DWIDTH 16 0
BBX 5 18 7 -5
BITMAP
08
18
30
20
60
E0
C0
C0
C0
C0
C0
C0
60
60
20
30
18
08
ENDCHAR
STARTCHAR 041
ENCODING 41
SWIDTH 1152 0
DWIDTH 16 0
BBX 5 18 5 -5
BITMAP
80
40
60
30
10
18
18
18
18
18
18
18
18
30
20
60
C0
80
ENDCHAR
STARTCHAR 042
ENCODING 42
SWIDTH 1152 0
DWIDTH 16 0
BBX 11 11 3 -1
BITMAP
0400
64C0
75C0
3F80
1F00
FFE0
1F00
3F80
75C0
64C0
0400
ENDCHAR
STARTCHAR 043
ENCODING 43
SWIDTH 1152 0
DWIDTH 16 0
BBX 13 11 2 -1
BITMAP
0700
0700
0700
0700
FFF8
FFF8
FFF8
0700
0700
0700
0700
ENDCHAR
STARTCHAR 044
ENCODING 44
SWIDTH 1152 0
DWIDTH 16 0
BBX 7 7 4 -3
BITMAP
0C
3E
3E
3E
0C
38
E0
ENDCHAR
STARTCHAR 045
ENCODING 45
SWIDTH 1152 0
DWIDTH 16 0
BBX 12 2 3 4
BITMAP
FFF0
FFF0
ENDCHAR
STARTCHAR 046
ENCODING 46
SWIDTH 1152 0
DWIDTH 16 0
BBX 5 5 6 2
BITMAP
20
70
F8
70
20
ENDCHAR
STARTCHAR 047
ENCODING 47
SWIDTH 1152 0
DWIDTH 16 0
BBX 10 16 3 -2
BITMAP
00C0
01C0
0180
0380
0300
0700
0600
0E00
0C00
1C00
1800
3800
7000
6000
E000
C000
ENDCHAR
STARTCHAR 048
ENCODING 48
SWIDTH 1152 0
DWIDTH 16 0
BBX 10 15 4 -3
BITMAP
0600
0F00
1F80
3B80
71C0
71C0
E1C0
E180
C380
C380
C300
C700
FE00
FC00
3000
ENDCHAR
STARTCHAR 049
ENCODING 49
SWIDTH 1152 0
DWIDTH 16 0
BBX 7 15 5 -3
BITMAP
04
0C
1C
3C
FC
18
18
18
18
18
18
18
38
7C
FE
ENDCHAR
STARTCHAR 050
ENCODING 50
SWIDTH 1152 0
DWIDTH 16 0
BBX 11 15 3 -3
BITMAP
0FC0
1FE0
3CE0
70E0
60E0
00E0
01C0
03C0
0780
0F00
1E00
3C00
FFE0
FFE0
FFE0
ENDCHAR
STARTCHAR 051
ENCODING 51
SWIDTH 1152 0
DWIDTH 16 0
BBX 10 15 3 -3
BITMAP
0F00
1F80
3F80
31C0
21C0
01C0
0380
0700
0380
01C0
01C0
C1C0
FF80
7F80
1E00
ENDCHAR
STARTCHAR 052
ENCODING 52
SWIDTH 1152 0
DWIDTH 16 0
BBX 9 15 4 -3
BITMAP
3000
3000
7180
6180
6380
E300
FF00
FF00
0300
0700
0600
0E00
0C00
0C00
0C00
ENDCHAR
STARTCHAR 053
ENCODING 53
SWIDTH 1152 0
DWIDTH 16 0
BBX 13 14 2 -3
BITMAP
07F0
0FF8
0E00
1C00
1800
3F00
3F80
01C0
00C0
00C0
C1C0
7380
3F00
1E00
ENDCHAR
STARTCHAR 054
ENCODING 54
SWIDTH 1152 0
DWIDTH 16 0
BBX 9 15 4 -3
BITMAP
1E00
3F00
7380
6180
6080
C000
FC00
FE00
E300
C180
C180
E380
FF00
7E00
1800
ENDCHAR
STARTCHAR 055
ENCODING 55
SWIDTH 1152 0
DWIDTH 16 0
BBX 12 14 2 -3
BITMAP
3FF0
3FF0
60E0
C0E0
00E0
01C0
0180
0380
0300
0700
0E00
0E00
1C00
1C00
ENDCHAR
STARTCHAR 056
ENCODING 56
SWIDTH 1152 0
DWIDTH 16 0
BBX 9 15 4 -3
BITMAP
0E00
3F00
3F80
7380
7380
7300
3E00
3C00
FE00
E300
C300
C300
FE00
FC00
7800
ENDCHAR
STARTCHAR 057
ENCODING 57
SWIDTH 1152 0
DWIDTH 16 0
BBX 10 14 4 -3
BITMAP
1F00
3F80
73C0
71C0
71C0
73C0
3F80
1F80
0300
0300
0600
8C00
FC00
7800
ENDCHAR
STARTCHAR 058
ENCODING 58
SWIDTH 1152 0
DWIDTH 16 0
BBX 4 10 7 -3
BITMAP
60
F0
F0
60
00
00
60
F0
F0
60
ENDCHAR
STARTCHAR 059
ENCODING 59
SWIDTH 1152 0
DWIDTH 16 0
BBX 4 11 7 -4
BITMAP
60
F0
60
00
00
00
60
F0
60
60
C0
ENDCHAR
STARTCHAR 060
ENCODING 60
SWIDTH 1152 0
DWIDTH 16 0
BBX 15 19 1 -5
BITMAP
0006
0006
0066
0066
0666
0666
2666
2666
A666
A666
A666
2666
2666
0666
0666
0066
0066
0006
0006
ENDCHAR
STARTCHAR 061
ENCODING 61
SWIDTH 1152 0
DWIDTH 16 0
BBX 12 7 3 0
BITMAP
FFF0
FFF0
FFF0
0000
0000
FFF0
FFF0
ENDCHAR
STARTCHAR 062
ENCODING 62
SWIDTH 1152 0
DWIDTH 16 0
BBX 15 19 0 -5
BITMAP
C000
C000
CC00
CC00
CCC0
CCC0
CCC0
CCC8
CCCA
CCCA
CCCA
CCC8
CCC0
CCC0
CCC0
CC00
CC00
C000
C000
ENDCHAR
STARTCHAR 063
ENCODING 63
SWIDTH 1152 0
DWIDTH 16 0
BBX 10 16 4 -4
BITMAP
3F00
7F80
E1C0
C0C0
00C0
01C0
0380
0700
0E00
1C00
1C00
1800
0000
1800
3C00
1800
ENDCHAR
STARTCHAR 064
ENCODING 64
SWIDTH 1152 0
DWIDTH 16 0
BBX 12 19 2 -5
BITMAP
0F00
0F00
0F00
0600
0600
1F80
3FC0
7FE0
6F60
CF30
9F90
9F90
1F80
1980
1980
1980
1980
39C0
79E0
ENDCHAR
STARTCHAR 065
ENCODING 65
SWIDTH 1152 0
DWIDTH 16 0
BBX 14 16 1 -3
BITMAP
1E00
3F00
7F80
47C0
0FC0
0CE0
1CE0
1CF0
3870
3870
3FF8
3FF8
7038
7038
F03C
F87C
ENDCHAR
STARTCHAR 066
ENCODING 66
SWIDTH 1152 0
DWIDTH 16 0
BBX 12 15 2 -3
BITMAP
FF00
7FC0
3FC0
38E0
3860
38E0
3FC0
3FE0
3830
3830
3830
3870
3FE0
3FC0
3F00
ENDCHAR
STARTCHAR 067
ENCODING 67
SWIDTH 1152 0
DWIDTH 16 0
BBX 13 15 1 -3
BITMAP
0FE0
1FF0
3FF8
7838
F038
E070
E0E0
E000
E000
E000
F000
7810
3FF0
1FE0
0FC0
ENDCHAR
STARTCHAR 068
ENCODING 68
SWIDTH 1152 0
DWIDTH 16 0
BBX 14 15 1 -3
BITMAP
FFE0
7FF0
7FF8
6038
601C
601C
601C
601C
601C
601C
601C
603C
7FF8
7FF0
FFF0
ENDCHAR
STARTCHAR 069
ENCODING 69
SWIDTH 1152 0
DWIDTH 16 0
BBX 11 17 2 -4
BITMAP
0020
FFE0
7FE0
7FE0
6000
6000
6000
7E00
7E00
7E00
6000
6000
6000
7FE0
7FE0
7FE0
0020
ENDCHAR
STARTCHAR 070
ENCODING 70
SWIDTH 1152 0
DWIDTH 16 0
BBX 11 15 3 -3
BITMAP
FFE0
FFE0
FFE0
E020
E000
E000
FC00
FE00
FF00
E000
E000
E000
E000
E000
E000
ENDCHAR
STARTCHAR 071
ENCODING 71
SWIDTH 1152 0
DWIDTH 16 0
BBX 14 16 1 -3
BITMAP
0FC0
1FF0
3FF8
3C38
781C
7000
F000
E000
E070
E0F8
E1FC
F18C
F80C
7FF8
3FF8
1FF0
ENDCHAR
STARTCHAR 072
ENCODING 72
SWIDTH 1152 0
DWIDTH 16 0
BBX 13 15 2 -2
BITMAP
F078
7070
7070
7070
7070
7070
7FF0
7FF0
7070
7070
7070
7070
7070
7070
FCF8
ENDCHAR
STARTCHAR 073
ENCODING 73
SWIDTH 1152 0
DWIDTH 16 0
BBX 8 16 4 -3
BITMAP
FF
FF
FF
18
18
18
18
18
18
18
18
18
18
FF
FF
FF
ENDCHAR
STARTCHAR 074
ENCODING 74
SWIDTH 1152 0
DWIDTH 16 0
BBX 13 16 1 -3
BITMAP
00F8
00F8
0070
0070
0070
0070
0070
0070
0070
0070
F870
F870
7070
70F0
3FE0
1FC0
ENDCHAR
STARTCHAR 075
ENCODING 75
SWIDTH 1152 0
DWIDTH 16 0
BBX 14 16 1 -3
BITMAP
0070
78F8
F8C8
7188
6380
6300
6700
6E00
7E00
7E00
6704
6704
638C
61F8
70F8
F078
ENDCHAR
STARTCHAR 076
ENCODING 76
SWIDTH 1152 0
DWIDTH 16 0
BBX 12 15 1 -3
BITMAP
F800
7800
3800
3800
3800
3800
3800
3800
3800
3800
3800
3830
3FF0
3FF0
3FF0
ENDCHAR
STARTCHAR 077
ENCODING 77
SWIDTH 1152 0
DWIDTH 16 0
BBX 15 15 0 -3
BITMAP
3018
3018
3838
3878
7C6C
7C6C
6ECC
66CC
63CC
638C
618C
600C
600E
F01E
F83E
ENDCHAR
STARTCHAR 078
ENCODING 78
SWIDTH 1152 0
DWIDTH 16 0
BBX 13 16 1 -4
BITMAP
C018
C030
E030
F030
D830
CC30
CC30
C630
C330
C3F0
C1F0
C1F0
C0F0
C0F0
C070
8000
ENDCHAR
STARTCHAR 079
ENCODING 79
SWIDTH 1152 0
DWIDTH 16 0
BBX 13 14 1 -3
BITMAP
1F80
3FE0
7FF0
F838
E018
E418
C018
C018
C018
E038
F070
7FF0
3FE0
0F00
ENDCHAR
STARTCHAR 080
ENCODING 80
SWIDTH 1152 0
DWIDTH 16 0
BBX 12 15 1 -3
BITMAP
7FC0
3FE0
2070
2030
2030
2070
3FF0
3FE0
2000
2000
2000
2000
2000
2000
E000
ENDCHAR
STARTCHAR 081
ENCODING 81
SWIDTH 1152 0
DWIDTH 16 0
BBX 15 18 1 -5
BITMAP
1F80
7FE0
7FE0
7FF0
E078
C018
C018
8008
8008
8008
8188
C188
4198
60F0
3FF0
1FF8
000C
0006
ENDCHAR
STARTCHAR 082
ENCODING 82
SWIDTH 1152 0
DWIDTH 16 0
BBX 14 16 1 -3
BITMAP
7F80
7FC0
7FE0
60E0
6070
6070
60E0
7FC0
7F80
6380
6180
61C0
70E4
787C
787C
F838
ENDCHAR
STARTCHAR 083
ENCODING 83
SWIDTH 1152 0
DWIDTH 16 0
BBX 13 15 1 -3
BITMAP
0FE0
1FF0
3870
7038
6000
7000
3F00
3FC0
00F0
0030
0030
E030
7FF0
3FE0
0FC0
ENDCHAR
STARTCHAR 084
ENCODING 84
SWIDTH 1152 0
DWIDTH 16 0
BBX 14 16 1 -3
BITMAP
8004
FFFC
FFFC
FFFC
0780
0780
0780
0780
0780
0780
0780
0780
0780
0780
0780
0FC0
ENDCHAR
STARTCHAR 085
ENCODING 85
SWIDTH 1152 0
DWIDTH 16 0
BBX 12 15 2 -3
BITMAP
F0F0
E070
E070
E070
E070
E070
E070
E070
E070
E070
E070
F0F0
7FE0
3FC0
1F80
ENDCHAR
STARTCHAR 086
ENCODING 86
SWIDTH 1152 0
DWIDTH 16 0
BBX 14 15 1 -3
BITMAP
FC7C
F01C
601C
6018
6018
3018
3030
3830
1860
1C60
0CC0
0FC0
0780
0780
0700
ENDCHAR
STARTCHAR 087
ENCODING 87
SWIDTH 1152 0
DWIDTH 16 0
BBX 14 15 1 -3
BITMAP
E01C
6018
6018
6018
6018
6018
6018
6018
6118
6398
67D8
7C78
7838
7038
2010
ENDCHAR
STARTCHAR 088
ENCODING 88
SWIDTH 1152 0
DWIDTH 16 0
BBX 14 17 1 -3
BITMAP
C01C
E01C
7038
3070
1860
1CC0
0F80
0700
0700
0780
0CC0
18E0
1870
3038
6018
E01C
C00C
ENDCHAR
STARTCHAR 089
ENCODING 89
SWIDTH 1152 0
DWIDTH 16 0
BBX 13 18 1 -4
BITMAP
E038
E038
6030
6030
3060
3060
18C0
18C0
0D80
0F80
0700
0200
0200
0200
0200
0200
1FC0
0F80
ENDCHAR
STARTCHAR 090
ENCODING 90
SWIDTH 1152 0
DWIDTH 16 0
BBX 13 16 2 -3
BITMAP
2000
6000
FFF0
FFF0
00E0
01C0
0380
0300
0700
0E00
1C00
3808
7818
FFF8
FFF0
FFF0
ENDCHAR
STARTCHAR 091
ENCODING 91
SWIDTH 1152 0
DWIDTH 16 0
BBX 7 18 5 -4
BITMAP
FE
FE
FE
C0
C0
C0
C0
C0
C0
C0
C0
C0
C0
C0
C0
C0
FE
FE
ENDCHAR
STARTCHAR 092
ENCODING 92
SWIDTH 1152 0
DWIDTH 16 0
BBX 9 15 3 -3
BITMAP
C000
C000
6000
7000
3000
1800
1C00
0C00
0C00
0600
0700
0300
0180
0180
0180
ENDCHAR
STARTCHAR 093
ENCODING 93
SWIDTH 1152 0
DWIDTH 16 0
BBX 7 18 4 -4
BITMAP
FE
FE
FE
06
06
66
66
66
06
06
06
06
06
06
06
06
FE
FE
ENDCHAR
STARTCHAR 094
ENCODING 94
SWIDTH 1152 0
DWIDTH 16 0
BBX 15 10 0 4
BITMAP
0100
0380
07C0
07C0
0FE0
1FF0
1EF0
3C78
783C
F01E
ENDCHAR
STARTCHAR 095
ENCODING 95
SWIDTH 1152 0
DWIDTH 16 0
BBX 16 3 0 -5
BITMAP
FFFF
FFFF
FFFF
ENDCHAR
STARTCHAR 096
ENCODING 96
SWIDTH 1152 0
DWIDTH 16 0
BBX 6 7 6 6
BITMAP
60
F0
F0
60
20
30
1C
ENDCHAR
STARTCHAR 097
ENCODING 97
SWIDTH 1152 0
DWIDTH 16 0
BBX 10 10 3 -3
BITMAP
0080
3D80
7F00
E700
C300
C300
C300
E740
FFC0
3980
ENDCHAR
STARTCHAR 098
ENCODING 98
SWIDTH 1152 0
DWIDTH 16 0
BBX 11 16 2 -3
BITMAP
1800
3800
7800
F800
3800
3800
3800
3F80
3FC0
3CE0
3860
3860
38E0
3FE0
3FC0
7F00
ENDCHAR
STARTCHAR 099
ENCODING 99
SWIDTH 1152 0
DWIDTH 16 0
BBX 10 11 3 -3
BITMAP
0E00
3F80
7FC0
70C0
E000
E000
E000
E000
7FC0
7F80
1E00
ENDCHAR
STARTCHAR 100
ENCODING 100
SWIDTH 1152 0
DWIDTH 16 0
BBX 12 17 2 -3
BITMAP
0100
0180
01C0
01C0
01C0
01C0
01C0
01C0
3FC0
7FC0
E3C0
C1C0
C1C0
C3C0
E7C0
7EF0
3860
ENDCHAR
STARTCHAR 101
ENCODING 101
SWIDTH 1152 0
DWIDTH 16 0
BBX 10 12 3 -3
BITMAP
0F00
3F80
3980
7180
E380
FF00
FC00
C000
E000
F0C0
7F80
3E00
ENDCHAR
STARTCHAR 102
ENCODING 102
SWIDTH 1152 0
DWIDTH 16 0
BBX 11 15 2 -3
BITMAP
0380
07C0
06C0
0600
0600
0600
4620
4620
7FC0
8640
8640
0600
0600
0600
0F00
ENDCHAR
STARTCHAR 103
ENCODING 103
SWIDTH 1152 0
DWIDTH 16 0
BBX 10 15 3 -4
BITMAP
0E40
1FC0
3380
6180
6100
7300
7F00
3E00
0FC0
1F80
7200
E200
C600
8C00
F800
ENDCHAR
STARTCHAR 104
ENCODING 104
SWIDTH 1152 0
DWIDTH 16 0
BBX 12 14 1 -3
BITMAP
4000
C000
4000
4000
4000
4000
4000
4E00
7F00
7F00
6300
4310
4330
43E0
ENDCHAR
STARTCHAR 105
ENCODING 105
SWIDTH 1152 0
DWIDTH 16 0
BBX 5 13 5 -3
BITMAP
30
00
00
70
70
70
30
30
30
30
30
70
F8
ENDCHAR
STARTCHAR 106
ENCODING 106
SWIDTH 1152 0
DWIDTH 16 0
BBX 10 17 3 -4
BITMAP
01C0
01C0
0000
0000
0080
0080
0180
0180
0180
0180
0180
0180
0180
8180
C380
6700
3C00
ENDCHAR
STARTCHAR 107
ENCODING 107
SWIDTH 1152 0
DWIDTH 16 0
BBX 12 14 1 -5
BITMAP
3000
3000
30C0
31E0
33A0
3600
3C00
3C00
3700
3390
31F0
30F0
6000
C000
ENDCHAR
STARTCHAR 108
ENCODING 108
SWIDTH 1152 0
DWIDTH 16 0
BBX 10 16 3 -3
BITMAP
0380
07C0
0CC0
0CC0
18C0
1180
1300
1600
3C00
3800
F000
F000
3380
3600
3C00
1800
ENDCHAR
STARTCHAR 109
ENCODING 109
SWIDTH 1152 0
DWIDTH 16 0
BBX 13 11 1 -3
BITMAP
1CF0
3EF0
7FF8
77B8
E318
C218
C218
C218
C030
C070
C060
ENDCHAR
STARTCHAR 110
ENCODING 110
SWIDTH 1152 0
DWIDTH 16 0
BBX 13 11 1 -3
BITMAP
3000
7E00
FF00
BF80
3180
3180
3188
31C8
71F8
F0F0
F860
ENDCHAR
STARTCHAR 111
ENCODING 111
SWIDTH 1152 0
DWIDTH 16 0
BBX 10 10 3 -3
BITMAP
1E00
7F80
F380
E1C0
C0C0
C4C0
C4C0
E180
7F80
1E00
ENDCHAR
STARTCHAR 112
ENCODING 112
SWIDTH 1152 0
DWIDTH 16 0
BBX 10 12 3 -5
BITMAP
7F00
7F80
61C0
60C0
60C0
63C0
7F80
7F00
6000
6000
6000
C000
ENDCHAR
STARTCHAR 113
ENCODING 113
SWIDTH 1152 0
DWIDTH 16 0
BBX 11 15 2 -5
BITMAP
0080
1D80
7F80
E380
C180
C180
C180
E380
7F80
3D80
0180
01A0
01E0
01C0
0180
ENDCHAR
STARTCHAR 114
ENCODING 114
SWIDTH 1152 0
DWIDTH 16 0
BBX 10 11 3 -3
BITMAP
3000
3800
3C00
7F00
73C0
6000
6000
E000
C000
C000
C000
ENDCHAR
STARTCHAR 115
ENCODING 115
SWIDTH 1152 0
DWIDTH 16 0
BBX 9 11 3 -3
BITMAP
1E00
3F00
7380
6180
3000
1C00
0E00
0300
8300
C700
7E00
ENDCHAR
STARTCHAR 116
ENCODING 116
SWIDTH 1152 0
DWIDTH 16 0
BBX 9 14 3 -3
BITMAP
1800
1800
1800
F800
FF00
1F00
1800
1800
1800
1800
1800
1880
1F80
1F00
ENDCHAR
STARTCHAR 117
ENCODING 117
SWIDTH 1152 0
DWIDTH 16 0
BBX 10 10 3 -3
BITMAP
E0C0
E0C0
E0C0
E0C0
E0C0
E0C0
E0C0
71C0
3F80
0F00
ENDCHAR
STARTCHAR 118
ENCODING 118
SWIDTH 1152 0
DWIDTH 16 0
BBX 14 11 1 -3
BITMAP
F83C
7018
2010
3030
1820
1860
0C40
04C0
0780
0300
0300
ENDCHAR
STARTCHAR 119
ENCODING 119
SWIDTH 1152 0
DWIDTH 16 0
BBX 15 10 0 -2
BITMAP
E006
6006
600C
2108
3318
3398
16B0
1EF0
1C60
0860
ENDCHAR
STARTCHAR 120
ENCODING 120
SWIDTH 1152 0
DWIDTH 16 0
BBX 12 11 2 -4
BITMAP
C030
6060
30C0
1980
0F00
0600
0F00
1980
30C0
6060
C030
ENDCHAR
STARTCHAR 121
ENCODING 121
SWIDTH 1152 0
DWIDTH 16 0
BBX 11 13 3 -5
BITMAP
C060
6060
60C0
30C0
1880
1980
0D80
0700
0600
0600
0C00
5800
7000
ENDCHAR
STARTCHAR 122
ENCODING 122
SWIDTH 1152 0
DWIDTH 16 0
BBX 10 11 3 -3
BITMAP
FFC0
FFC0
01C0
0380
0700
0E00
1C00
3800
7FC0
FFC0
FFC0
ENDCHAR
STARTCHAR 123
ENCODING 123
SWIDTH 1152 0
DWIDTH 16 0
BBX 7 17 4 -4
BITMAP
1E
18
18
18
18
18
18
30
E0
30
18
18
18
18
18
18
1E
ENDCHAR
STARTCHAR 124
ENCODING 124
SWIDTH 1152 0
DWIDTH 16 0
BBX 2 17 7 -5
BITMAP
C0
C0
C0
C0
C0
C0
C0
C0
C0
C0
C0
C0
C0
C0
C0
C0
C0
ENDCHAR
STARTCHAR 125
ENCODING 125
SWIDTH 1152 0
DWIDTH 16 0
BBX 9 18 3 -5
BITMAP
F000
3800
1800
0C00
0C00
0C00
0C00
0600
0380
0600
0C00
0C00
0C00
0C00
0C00
1800
3800
F000
ENDCHAR
STARTCHAR 126
ENCODING 126
SWIDTH 1152 0
DWIDTH 16 0
BBX 12 9 2 -2
BITMAP
1810
7E30
E7E0
C3C0
0000
3C10
7E30
C7E0
C1C0
ENDCHAR
STARTCHAR 127
ENCODING 127
SWIDTH 1152 0
DWIDTH 16 0
BBX 16 22 0 -6
BITMAP
FFFF
FFFF
FFFF
FFFF
FFFF
FFFF
FFFF
FFFF
FFFF
FFFF
FFFF
FFFF
FFFF
FFFF
FFFF
FFFF
FFFF
FFFF
FFFF
FFFF
FFFF
FFFF
ENDCHAR
STARTCHAR 128
ENCODING 128
SWIDTH 1152 0
DWIDTH 16 0
BBX 16 20 0 -6
BITMAP
FFFF
FFFF
E00F
C007
8FF7
8003
93A3
502A
53AA
502A
52AB
52AA
52A2
52AA
52A2
52AA
52AA
52AB
52AB
52AA
ENDCHAR
STARTCHAR 129
ENCODING 129
SWIDTH 1152 0
DWIDTH 16 0
BBX 6 20 0 -6
BITMAP
E0
E0
E0
A0
A0
E0
E0
E0
E0
E0
FC
FC
E0
E0
E0
E0
E0
A0
A0
E0
ENDCHAR
STARTCHAR 130
ENCODING 130
SWIDTH 1152 0
DWIDTH 16 0
BBX 14 15 1 -3
BITMAP
F87C
F03C
E01C
E01C
E01C
E01C
E01C
E01C
E01C
E01C
E01C
F03C
7FF8
3FF0
3FF0
ENDCHAR
STARTCHAR 131
ENCODING 131
SWIDTH 1152 0
DWIDTH 16 0
BBX 14 19 1 -4
BITMAP
0300
0780
0480
0780
0780
0300
0FC0
1FE0
3FF0
6FD8
C78C
0300
0300
0780
0FC0
0300
0300
0300
0300
ENDCHAR
STARTCHAR 132
ENCODING 132
SWIDTH 1152 0
DWIDTH 16 0
BBX 12 11 2 -1
BITMAP
0600
0600
1680
36C0
36C0
B6D0
36C0
36C0
1680
0600
0600
ENDCHAR
STARTCHAR 133
ENCODING 133
SWIDTH 1152 0
DWIDTH 16 0
BBX 13 19 1 -6
BITMAP
1640
2BA0
5CD0
3FC8
F370
3FF0
FFC8
DF78
33C8
FFF0
3FF0
FCC8
2FB0
1FD0
2BA0
0300
0300
0300
0300
ENDCHAR
STARTCHAR 134
ENCODING 134
SWIDTH 1152 0
DWIDTH 16 0
BBX 13 16 1 -6
BITMAP
0840
1580
0A00
2D60
5390
3EF8
3EF8
D3F0
3F68
3FE8
DDF0
1750
13A0
0300
0300
0300
ENDCHAR
STARTCHAR 135
ENCODING 135
SWIDTH 1152 0
DWIDTH 16 0
BBX 13 18 1 -6
BITMAP
33E0
1D80
0790
3968
CB80
4F00
33F0
5EE0
1B10
E3E0
E730
1E00
13E0
1310
2200
0300
0300
0300
ENDCHAR
STARTCHAR 136
ENCODING 136
SWIDTH 1152 0
DWIDTH 16 0
BBX 16 22 0 -6
BITMAP
1986
1986
201C
A019
6660
6798
1804
F863
0798
0798
0798
9825
6582
9C47
9C47
0058
67A0
99A7
99A7
0658
0658
69A6
ENDCHAR
STARTCHAR 137
ENCODING 137
SWIDTH 1152 0
DWIDTH 16 0
BBX 16 22 0 -6
BITMAP
8208
8408
0400
8010
0820
5020
2840
1460
23A0
20A0
A113
520C
4C18
0520
48C0
0900
D247
4830
A1A0
5420
A810
5B57
ENDCHAR
STARTCHAR 138
ENCODING 138
SWIDTH 1152 0
DWIDTH 16 0
BBX 16 4 0 3
BITMAP
8888
CCCC
FFFF
3337
ENDCHAR
STARTCHAR 139
ENCODING 139
SWIDTH 1152 0
DWIDTH 16 0
BBX 14 21 0 -6
BITMAP
1020
4008
0800
0220
9008
0040
0000
9C70
2ED8
7BF8
438C
4104
0100
0104
4100
1FF0
610C
4104
400C
7FFC
3FF8
ENDCHAR
STARTCHAR 140
ENCODING 140
SWIDTH 1152 0
DWIDTH 16 0
BBX 16 15 0 -5
BITMAP
0038
0078
00EC
0684
2FFC
78CC
DE8E
9386
F1FD
BFFD
BE23
C5C9
D95C
BD55
7EDC
ENDCHAR
STARTCHAR 141
ENCODING 141
SWIDTH 1152 0
DWIDTH 16 0
BBX 15 20 1 -5
BITMAP
4882
6982
5684
3F04
2508
3508
3E18
3218
1C38
62B0
7EF0
7FF8
FF20
FEC0
FE80
FF80
FF80
FF80
FF80
AA80
ENDCHAR
STARTCHAR 142
ENCODING 142
SWIDTH 1152 0
DWIDTH 16 0
BBX 14 18 1 -5
BITMAP
0300
0FC0
3FF0
7FF8
BFE4
CFCC
F33C
F87C
FDFC
FDFC
FDFC
FDFC
FDFC
FDFC
7DF8
3DE0
0FC0
0200
ENDCHAR
STARTCHAR 143
ENCODING 143
SWIDTH 1152 0
DWIDTH 16 0
BBX 16 22 0 -6
BITMAP
0003
8002
8004
4004
2008
1010
1010
0820
0440
0240
0180
0100
0280
0480
0440
0820
0820
1010
2008
4008
8004
8003
ENDCHAR
STARTCHAR 144
ENCODING 144
SWIDTH 1152 0
DWIDTH 16 0
BBX 16 22 0 -6
BITMAP
0003
8002
8004
4004
2008
1010
1010
0820
0440
0240
0180
0100
0280
0480
0440
0820
0820
1010
2008
4008
8004
8003
ENDCHAR
STARTCHAR 145
ENCODING 145
SWIDTH 1152 0
DWIDTH 16 0
BBX 16 22 0 -6
BITMAP
FBDB
FBDB
F6DF
3FF6
EFFF
EFEB
FDFF
FFEB
7FBE
FDF7
EDFD
7F7E
FAFF
BF9F
BF9F
EFFF
5DEE
FFFF
FF5F
67E6
FF63
BBBF
ENDCHAR
STARTCHAR 146
ENCODING 146
SWIDTH 1152 0
DWIDTH 16 0
BBX 16 22 0 -6
BITMAP
FFFF
FFFF
FBDE
718C
0421
8E73
FFFF
FBDE
718E
718C
8421
8E71
FFFF
FBDE
7BDE
318C
8E73
FFFF
FBDE
718E
0421
8E73
ENDCHAR
STARTCHAR 147
ENCODING 147
SWIDTH 1152 0
DWIDTH 16 0
BBX 12 17 2 -4
BITMAP
0400
0400
0600
0E00
1700
1D80
2E40
5520
7FF0
AAD0
AB50
56A0
2B40
1680
0F00
0600
0200
ENDCHAR
STARTCHAR 148
ENCODING 148
SWIDTH 1152 0
DWIDTH 16 0
BBX 16 20 0 -6
BITMAP
7E7A
3D7E
3C36
0000
0000
F8FC
F9EF
FD7F
78FC
0000
5C79
FE7D
FE7C
7C35
0000
0000
7CFA
FF7C
FEFE
4C92
ENDCHAR
STARTCHAR 149
ENCODING 149
SWIDTH 1152 0
DWIDTH 16 0
BBX 16 22 0 -6
BITMAP
FBEF
FBEF
9EBF
DD7F
76EC
67DE
16DE
FBDF
CDBD
3FC6
F279
F76B
EFE9
6BDE
6BDE
7A3E
7DEC
99DD
75F8
FDD7
DE4D
EAFB
ENDCHAR
STARTCHAR 150
ENCODING 150
SWIDTH 1152 0
DWIDTH 16 0
BBX 16 20 0 -5
BITMAP
7E7A
357E
3C36
0000
0000
F8F4
E9AB
B577
58FC
0000
5C71
BA4D
DA7C
7435
0000
0000
7CFA
BA54
D6BE
4C92
ENDCHAR
STARTCHAR 151
ENCODING 151
SWIDTH 1152 0
DWIDTH 16 0
BBX 14 13 0 -2
BITMAP
0008
0014
3828
7E54
DFEC
FFD8
C7F4
B1E8
4804
440C
8618
8370
01C0
ENDCHAR
STARTCHAR 152
ENCODING 152
SWIDTH 1152 0
DWIDTH 16 0
BBX 15 15 0 -3
BITMAP
0006
000E
001E
003C
0078
00F0
01E0
03C0
6780
6F00
1E00
1C00
6300
E300
C000
ENDCHAR
STARTCHAR 153
ENCODING 153
SWIDTH 1152 0
DWIDTH 16 0
BBX 13 20 1 -5
BITMAP
E000
7800
3E00
1F80
1FC0
1FF0
1C78
1C38
1C38
1C70
1FF0
1C38
1C18
1C18
1C38
0FF8
17F0
1B80
3E00
7800
ENDCHAR
STARTCHAR 154
ENCODING 154
SWIDTH 1152 0
DWIDTH 16 0
BBX 13 17 1 -4
BITMAP
0008
0018
0FF8
3FE8
7FF8
FDD8
ECD8
E668
F000
F800
C000
C000
C080
C538
FF30
7FE0
3FC0
ENDCHAR
STARTCHAR 155
ENCODING 155
SWIDTH 1152 0
DWIDTH 16 0
BBX 15 17 0 -5
BITMAP
1FC0
1FF0
1FF8
1E3C
1E1E
3E1E
7E0E
F60E
E60E
F60E
7E0E
3E0E
1E1C
1E3C
1FF8
1FF0
1FC0
ENDCHAR
STARTCHAR 156
ENCODING 156
SWIDTH 1152 0
DWIDTH 16 0
BBX 15 17 0 -4
BITMAP
FFF0
7FF8
363C
161E
1E0E
1E0E
1E0E
1E0E
1E0E
1E0E
1E0E
1E0E
1E0E
1E1E
163C
7FF8
FFF0
ENDCHAR
STARTCHAR 157
ENCODING 157
SWIDTH 1152 0
DWIDTH 16 0
BBX 16 22 0 -6
BITMAP
0003
8002
8004
4004
2008
1010
1010
0820
0440
0240
0180
0100
0280
0480
0440
0820
0820
1010
2008
4008
8004
8003
ENDCHAR
STARTCHAR 158
ENCODING 158
SWIDTH 1152 0
DWIDTH 16 0
BBX 11 22 2 -6
BITMAP
0600
0600
0C00
0C00
1800
1800
3020
3060
7FC0
7FC0
C180
8180
0100
0300
0200
0600
4400
6C00
7800
7E00
7C00
7000
ENDCHAR
STARTCHAR 159
ENCODING 159
SWIDTH 1152 0
DWIDTH 16 0
BBX 16 19 0 -5
BITMAP
00C0
0180
C308
6608
2670
26A2
2DE6
8D4D
CD49
6D5A
6FDA
96DB
634C
B3C9
DF8A
7B36
0566
1D46
006C
ENDCHAR
STARTCHAR 160
ENCODING 160
SWIDTH 1152 0
DWIDTH 16 0
BBX 14 18 1 -4
BITMAP
0780
0480
0780
C78C
C78C
0000
EFBC
EFBC
EFBC
0F80
0F80
0000
3830
3830
0000
783C
783C
783C
ENDCHAR
STARTCHAR 161
ENCODING 161
SWIDTH 1152 0
DWIDTH 16 0
BBX 16 20 0 -5
BITMAP
8BD2
C6A6
6764
3BCC
1E78
6FF4
FDAE
EDAF
CDA7
CE66
67C2
09AE
146C
0E70
1E70
1668
1E78
3C3C
542A
542A
ENDCHAR
STARTCHAR 162
ENCODING 162
SWIDTH 1152 0
DWIDTH 16 0
BBX 16 22 0 -6
BITMAP
03E0
12A8
3D6C
37FE
6006
E186
E24F
FBDF
7D9C
7E3C
1FF8
0FF8
0FF8
1FF8
3FF8
7FFC
FC3E
F03E
701C
1838
3870
F03C
ENDCHAR
STARTCHAR 163
ENCODING 163
SWIDTH 1152 0
DWIDTH 16 0
BBX 15 20 0 -6
BITMAP
0072
003A
001A
000E
000E
0006
0004
000C
000C
381C
7E7C
FFFC
EFFC
FFFC
FFF8
F5F8
E9F0
D5E0
2BC0
1E00
ENDCHAR
STARTCHAR 164
ENCODING 164
SWIDTH 1152 0
DWIDTH 16 0
BBX 15 21 1 -6
BITMAP
EE00
FF00
DF00
8A00
1D00
3E00
36C0
41E0
DFF0
CF30
821E
8F08
FA00
0B00
1780
3F80
7FC0
FFE0
FFE0
30C0
E0F0
ENDCHAR
STARTCHAR 165
ENCODING 165
SWIDTH 1152 0
DWIDTH 16 0
BBX 16 20 0 -5
BITMAP
03C0
0420
03C0
0000
2398
73D8
7A5C
F7EE
F24E
EBCE
EBCF
FDB7
DA77
DBB7
D7D7
8FC6
9FC2
06E2
0E60
1E70
ENDCHAR
STARTCHAR 166
ENCODING 166
SWIDTH 1152 0
DWIDTH 16 0
BBX 16 21 0 -6
BITMAP
000E
00DC
01DC
07BE
07BF
077F
077E
06E4
0CCF
0DFF
0DDC
6BFC
FB98
5718
0FE0
0FE0
07F8
07FE
0DF5
399A
5284
ENDCHAR
STARTCHAR 167
ENCODING 167
SWIDTH 1152 0
DWIDTH 16 0
BBX 15 17 0 -4
BITMAP
D800
F800
A800
F800
880E
AC0E
FE02
7FE6
7FFE
7FFC
7FF8
7FF8
3F7C
226C
226C
22D8
6600
ENDCHAR
STARTCHAR 168
ENCODING 168
SWIDTH 1152 0
DWIDTH 16 0
BBX 16 21 0 -6
BITMAP
0700
0DB8
1FAC
01BC
0FB8
E1BC
A3F1
F3F4
7BEA
7FEA
FFCF
1F9C
1FBA
0FF8
07F0
03E0
01E0
39F0
7FF6
FFFE
7B9C
ENDCHAR
STARTCHAR 169
ENCODING 169
SWIDTH 1152 0
DWIDTH 16 0
BBX 16 20 0 -5
BITMAP
1010
2008
600C
E825
E827
EC67
EFEF
654C
A7DB
DD77
F6DF
E7D7
6FE2
E7CC
239B
37D8
3FF8
17D8
3018
4C64
ENDCHAR
STARTCHAR 170
ENCODING 170
SWIDTH 1152 0
DWIDTH 16 0
BBX 16 22 0 -6
BITMAP
8180
4243
A6A4
DB6B
2BF4
07F8
0340
0AA0
1550
0AA0
D456
682C
33C8
3FFC
0BD4
3998
2DB4
17EC
27E4
15A8
25A4
03C0
ENDCHAR
STARTCHAR 171
ENCODING 171
SWIDTH 1152 0
DWIDTH 16 0
BBX 16 16 0 -3
BITMAP
4104
2104
1108
9111
8FE0
4CF6
7838
1830
1118
7118
9831
9879
1FF6
0910
1110
6108
ENDCHAR
STARTCHAR 172
ENCODING 172
SWIDTH 1152 0
DWIDTH 16 0
BBX 11 18 3 -4
BITMAP
0FC0
30A0
50E0
4F60
31E0
0FE0
2BE0
17C0
2FC0
0FC0
2F00
2F00
5C00
3C00
7800
3000
C000
8000
ENDCHAR
STARTCHAR 173
ENCODING 173
SWIDTH 1152 0
DWIDTH 16 0
BBX 16 13 0 -5
BITMAP
0004
2006
2406
6C02
7C02
5E72
7FFA
7FFE
7FFE
7FFE
EF7E
DC7F
9877
ENDCHAR
STARTCHAR 174
ENCODING 174
SWIDTH 1152 0
DWIDTH 16 0
BBX 16 18 0 -5
BITMAP
0078
0084
0100
026A
1C6A
1802
A430
5833
7432
9803
180A
9835
4564
5AC0
AD2D
53C8
9880
4100
ENDCHAR
STARTCHAR 175
ENCODING 175
SWIDTH 1152 0
DWIDTH 16 0
BBX 16 18 0 -5
BITMAP
01C0
03E0
0FA2
0322
0722
0FC2
1FC2
1FE2
3FE2
3FB6
7F9A
7F8E
FFC2
FE60
FE61
F821
3030
7018
ENDCHAR
STARTCHAR 176
ENCODING 176
SWIDTH 1152 0
DWIDTH 16 0
BBX 10 18 4 -5
BITMAP
7000
F800
A800
F800
7E00
3F00
1F00
1F00
1C80
3C80
2C40
4C40
9400
1400
1400
1400
1400
1400
ENDCHAR
STARTCHAR 177
ENCODING 177
SWIDTH 1152 0
DWIDTH 16 0
BBX 15 21 0 -5
BITMAP
0004
0014
001E
031E
048E
048A
0308
0488
0CC4
377C
7FAC
54BC
CB58
D4A0
CB40
CB40
FFE0
7FE0
1CE0
3CF0
3CF0
ENDCHAR
STARTCHAR 178
ENCODING 178
SWIDTH 1152 0
DWIDTH 16 0
BBX 14 19 1 -5
BITMAP
2304
1704
0C08
0708
0710
1920
1EA0
13C0
1340
1AA0
0E00
1F00
1F00
3900
3080
3080
2080
60C0
E0E0
ENDCHAR
STARTCHAR 179
ENCODING 179
SWIDTH 1152 0
DWIDTH 16 0
BBX 16 21 0 -5
BITMAP
2004
2004
300C
1DDC
02A0
02A0
1BEC
2DDA
720E
F00E
E417
C7F7
E006
6004
6004
0C18
1E3C
1C1C
180C
3006
6002
ENDCHAR
STARTCHAR 180
ENCODING 180
SWIDTH 1152 0
DWIDTH 16 0
BBX 15 20 0 -6
BITMAP
0040
0140
0004
0000
030E
67BE
FFF2
7FF2
3FDE
3F9E
6F38
EE7C
ECFC
71F8
3FF0
3FF0
FEF4
7C00
3830
8000
ENDCHAR
STARTCHAR 181
ENCODING 181
SWIDTH 1152 0
DWIDTH 16 0
BBX 16 15 0 -3
BITMAP
0F00
3FC1
3FFB
79FE
7000
380E
3FFF
1FFF
0F03
0003
000F
1FFE
7FBC
D800
7000
ENDCHAR
STARTCHAR 182
ENCODING 182
SWIDTH 1152 0
DWIDTH 16 0
BBX 15 20 0 -5
BITMAP
4040
E150
4150
A3F8
4208
42A8
4248
4112
4356
4556
4BFA
5248
73F0
67F8
42D6
4408
4606
4002
4E06
5C06
ENDCHAR
STARTCHAR 183
ENCODING 183
SWIDTH 1152 0
DWIDTH 16 0
BBX 16 22 0 -6
BITMAP
0810
4426
2248
1790
0FE2
3D7C
C7E0
1FB8
2346
4CC0
1F90
1B99
33CE
65E6
CAE0
0DF0
1FF0
3FF8
3FFC
39FC
3CFC
0C00
ENDCHAR
STARTCHAR 184
ENCODING 184
SWIDTH 1152 0
DWIDTH 16 0
BBX 13 15 1 -3
BITMAP
8008
4510
6AB0
3560
5FD0
AFA8
AFA8
5FD0
AFA8
5FD0
5FD0
3560
6AB0
4510
8008
ENDCHAR
STARTCHAR 185
ENCODING 185
SWIDTH 1152 0
DWIDTH 16 0
BBX 16 21 0 -6
BITMAP
0240
0660
0240
83C1
4180
23DC
325A
6C34
EFEA
F7D6
E6AE
C55F
F2BF
FD5F
3FB4
1F78
1A38
3818
300C
1818
700E
ENDCHAR
STARTCHAR 186
ENCODING 186
SWIDTH 1152 0
DWIDTH 16 0
BBX 16 22 0 -6
BITMAP
0002
0005
0005
0005
07C2
0646
05C4
0476
1E9A
3316
4126
4822
8CEE
73E2
8312
8C12
500A
200A
600A
67CE
EFFF
7C70
ENDCHAR
STARTCHAR 187
ENCODING 187
SWIDTH 1152 0
DWIDTH 16 0
BBX 16 20 0 -6
BITMAP
0040
00E0
01F0
0370
0710
0FF8
0FFD
8FFE
4FFE
6FF6
39FC
13F8
07F0
07F8
07F8
07F8
0FF8
0FFC
0C0C
0804
ENDCHAR
STARTCHAR 188
ENCODING 188
SWIDTH 1152 0
DWIDTH 16 0
BBX 15 20 0 -6
BITMAP
8380
8540
C7C0
6AA0
2BA8
3C5C
7FBE
EF7E
CF7E
CF5E
E97E
7FBE
3CFE
631E
D8CC
AE30
31CC
3030
7038
E038
ENDCHAR
STARTCHAR 189
ENCODING 189
SWIDTH 1152 0
DWIDTH 16 0
BBX 14 20 1 -5
BITMAP
2090
2090
37C8
5F78
7F68
7F68
7838
7018
DC68
DC68
7C74
3C54
1874
3B10
3B18
1320
2C60
2480
2480
4480
ENDCHAR
STARTCHAR 190
ENCODING 190
SWIDTH 1152 0
DWIDTH 16 0
BBX 16 22 0 -6
BITMAP
01F8
01F8
0148
03F8
3FF8
7078
737C
E73E
EF9F
8F9F
8F8F
8FC7
E7C7
77F4
B8F5
1C30
6FB8
66B8
F5BF
F73F
F03F
7000
ENDCHAR
STARTCHAR 191
ENCODING 191
SWIDTH 1152 0
DWIDTH 16 0
BBX 14 18 0 -4
BITMAP
0004
003C
002C
00FC
0030
0FFC
1FFC
7FC0
7FC0
FFF0
FFF0
FFF0
FFB8
DFA0
C9C0
C8C0
EC00
6400
ENDCHAR
STARTCHAR 192
ENCODING 192
SWIDTH 1152 0
DWIDTH 16 0
BBX 16 20 0 -5
BITMAP
01F0
00E0
03F8
E3EC
E3EC
73E0
71E3
71FC
33F8
37FF
3FF1
0FC0
07C0
07C0
0FC0
0C80
0C80
0CC0
0660
0100
ENDCHAR
STARTCHAR 193
ENCODING 193
SWIDTH 1152 0
DWIDTH 16 0
BBX 16 17 0 -4
BITMAP
0FF8
0FF8
7C1E
F3F7
EFFB
EFFB
DC3F
DC3F
DCBB
DCBF
DCFB
EFBF
F1DC
7ED8
7FFC
1FEE
0002
ENDCHAR
STARTCHAR 194
ENCODING 194
SWIDTH 1152 0
DWIDTH 16 0
BBX 15 13 0 -5
BITMAP
0800
71F8
DBFC
FFFC
7FFE
1FFE
07FE
02FE
0476
0042
0002
0002
0004
ENDCHAR
STARTCHAR 195
ENCODING 195
SWIDTH 1152 0
DWIDTH 16 0
BBX 16 22 0 -6
BITMAP
0600
1F30
3F98
7CCC
FFCE
EFC7
B7C7
DFE6
7FF7
FBF7
E7F7
07F6
0FF6
9BF6
7BFE
93FE
437C
0338
0738
0730
0670
0E60
ENDCHAR
STARTCHAR 196
ENCODING 196
SWIDTH 1152 0
DWIDTH 16 0
BBX 13 22 1 -6
BITMAP
1C00
7E00
F700
FF80
3F80
FF80
0FC0
3FD8
7FC8
4FC8
1FC8
3FD8
2FF8
0FF8
0FF8
1FF0
3FE0
3FC0
39C0
18C0
18C0
39C0
ENDCHAR
STARTCHAR 197
ENCODING 197
SWIDTH 1152 0
DWIDTH 16 0
BBX 16 21 0 -6
BITMAP
0540
0380
0010
928A
4014
D38B
6004
4927
3442
0BA4
0444
0BAC
0440
0380
0C60
0240
03C0
0240
0240
0640
0460
ENDCHAR
STARTCHAR 198
ENCODING 198
SWIDTH 1152 0
DWIDTH 16 0
BBX 16 22 0 -6
BITMAP
0600
0700
0380
71C0
DC40
8E40
035C
F3FE
EDFF
87BF
02EF
1FBE
77EC
E6FE
E356
C3E9
836D
832D
0334
0336
0336
0236
ENDCHAR
STARTCHAR 199
ENCODING 199
SWIDTH 1152 0
DWIDTH 16 0
BBX 16 20 0 -5
BITMAP
01C0
03E0
02B0
01E8
0D28
0D24
3ED6
FFFE
FE37
CF77
CF77
E776
EFEE
03EE
2FF0
1E38
1C1C
1414
1C14
3C1E
ENDCHAR
STARTCHAR 200
ENCODING 200
SWIDTH 1152 0
DWIDTH 16 0
BBX 14 15 0 -4
BITMAP
3FE0
77A0
F330
D870
D878
EB7C
E01C
EB5C
F87C
F83C
F83C
703C
2318
3FF0
1FE0
ENDCHAR
STARTCHAR 201
ENCODING 201
SWIDTH 1152 0
DWIDTH 16 0
BBX 16 22 0 -6
BITMAP
2244
6246
724E
8E72
8FF1
9661
B181
A58F
AA27
C55B
DA0B
D24D
41BC
35C0
1210
0C10
0F18
0E08
0C1C
0418
0A20
0730
ENDCHAR
STARTCHAR 202
ENCODING 202
SWIDTH 1152 0
DWIDTH 16 0
BBX 14 19 1 -5
BITMAP
04C0
03E0
03A0
01E0
01FC
F3F0
33AC
35EC
3700
3F80
1FC0
0FE0
0FE0
0330
010C
0300
0300
0600
0400
ENDCHAR
STARTCHAR 203
ENCODING 203
SWIDTH 1152 0
DWIDTH 16 0
BBX 15 22 0 -6
BITMAP
0180
0240
0520
0810
2A94
510A
2004
1388
1288
2280
5008
5818
2008
1448
1288
1108
1008
1008
1008
300C
7666
FC3E
ENDCHAR
STARTCHAR 204
ENCODING 204
SWIDTH 1152 0
DWIDTH 16 0
BBX 16 22 0 -6
BITMAP
00F0
01F0
03F0
0670
0630
0C30
0C10
3FFC
7FFE
FFFE
F3F2
C7F3
87F3
87F1
0FF1
0FF8
0FFC
0FFC
1FFC
3FFC
7FFC
03FC
ENDCHAR
STARTCHAR 205
ENCODING 205
SWIDTH 1152 0
DWIDTH 16 0
BBX 15 21 1 -5
BITMAP
0008
2A0C
2A18
3E0C
0018
2A18
3E08
160C
5F18
EA98
F7C8
FFDC
FD7E
FB68
F7B8
E788
BF80
DF80
FF80
6180
79C0
ENDCHAR
STARTCHAR 206
ENCODING 206
SWIDTH 1152 0
DWIDTH 16 0
BBX 14 20 1 -5
BITMAP
1F00
1530
1FFC
1374
33AC
1FDC
12DC
10DC
18DC
10F8
0CF8
1CEC
38C8
618C
E34C
E384
D304
9304
6304
070C
ENDCHAR
STARTCHAR 207
ENCODING 207
SWIDTH 1152 0
DWIDTH 16 0
BBX 16 16 0 -2
BITMAP
3000
3E00
1F00
0180
0EE0
FFF1
FFFF
1FFE
FFFF
FFFF
3FFE
F7FE
E73F
8E0F
3800
7000
ENDCHAR
STARTCHAR 208
ENCODING 208
SWIDTH 1152 0
DWIDTH 16 0
BBX 16 22 0 -6
BITMAP
00E0
03A0
02C0
01A0
43C0
5141
E142
4BE2
96D9
D1AA
0340
07E0
0540
03E0
06B0
0140
0660
0E40
0220
0660
0C70
1C38
ENDCHAR
STARTCHAR 209
ENCODING 209
SWIDTH 1152 0
DWIDTH 16 0
BBX 15 19 0 -5
BITMAP
FFE0
F3F0
7BF8
3E7C
1E3E
1E1E
1E1E
FE1E
F21E
7A1E
3E1E
1E1E
1E1E
FE1E
F21E
7A3C
3FF8
1FF0
1FE0
ENDCHAR
STARTCHAR 210
ENCODING 210
SWIDTH 1152 0
DWIDTH 16 0
BBX 15 21 0 -6
BITMAP
FFC0
F3F0
67F8
3FFC
1E7C
FE3E
F21E
660E
3E0E
1E0E
FE0E
F20E
660E
3E0E
1E0E
FE1E
F23E
667C
3FF8
1FF8
1FC0
ENDCHAR
STARTCHAR 211
ENCODING 211
SWIDTH 1152 0
DWIDTH 16 0
BBX 14 20 1 -5
BITMAP
FFC0
7FE0
3FF0
3838
381C
381C
3B5C
381C
381C
381C
381C
399C
381C
381C
383C
3FF8
7FF0
FFF0
36D8
EC6C
ENDCHAR
STARTCHAR 212
ENCODING 212
SWIDTH 1152 0
DWIDTH 16 0
BBX 16 20 0 -6
BITMAP
3FFC
7FFC
FE1E
EE0F
CE0F
CEAF
CE0F
CE0F
0E0F
0ECF
0ECF
0E0F
0E1E
3FFC
FFFC
1B2E
1337
3733
E632
CC64
ENDCHAR
STARTCHAR 213
ENCODING 213
SWIDTH 1152 0
DWIDTH 16 0
BBX 15 17 0 -4
BITMAP
FFF0
7FF8
7FFC
301E
300E
F08E
708E
708E
308E
308E
F3EE
71CE
708E
301E
27FE
5FFC
5FF8
ENDCHAR
STARTCHAR 214
ENCODING 214
SWIDTH 1152 0
DWIDTH 16 0
BBX 14 19 1 -5
BITMAP
0080
01C0
03E0
07F0
0E38
1E1C
3C1C
7E1C
FE38
E7F0
63E0
30C0
380C
1C18
1E38
0FF0
07E0
03C0
0180
ENDCHAR
STARTCHAR 215
ENCODING 215
SWIDTH 1152 0
DWIDTH 16 0
BBX 12 21 2 -6
BITMAP
1680
2940
3FC0
FFE0
FFE0
C030
C000
C000
C000
CD00
FFC0
F3C0
C180
C100
C000
C030
FFE0
FFE0
3FC0
2940
1680
ENDCHAR
STARTCHAR 216
ENCODING 216
SWIDTH 1152 0
DWIDTH 16 0
BBX 14 22 1 -6
BITMAP
0300
0380
0FC0
1FE0
3CF0
7878
F03C
703C
3878
1CF0
0FC0
07F8
03F8
07E0
0CC0
1CC0
1CC0
19C0
1BC0
1F80
1F00
0400
ENDCHAR
STARTCHAR 217
ENCODING 217
SWIDTH 1152 0
DWIDTH 16 0
BBX 14 18 1 -5
BITMAP
07CC
1FFC
3FFC
3E1C
780C
700C
7000
E000
E010
E030
E078
E0FC
E1FC
701C
7C1C
3E3C
1FF8
07F0
ENDCHAR
STARTCHAR 218
ENCODING 218
SWIDTH 1152 0
DWIDTH 16 0
BBX 13 17 2 -4
BITMAP
2000
2000
6000
E180
E180
6000
6000
6000
6000
6700
7F80
7F80
7F80
6388
6398
63F8
63F8
ENDCHAR
STARTCHAR 219
ENCODING 219
SWIDTH 1152 0
DWIDTH 16 0
BBX 12 18 2 -4
BITMAP
0080
21C0
2280
6280
E380
E0C0
60A0
62A0
61C0
6080
6000
7F00
7F00
7F80
6380
6380
6390
63F0
ENDCHAR
STARTCHAR 220
ENCODING 220
SWIDTH 1152 0
DWIDTH 16 0
BBX 15 22 0 -6
BITMAP
0100
0E02
0E0E
7818
F838
3838
381C
180C
180C
381C
3FFC
3E78
3818
181C
180C
380C
380C
781C
7C3E
381C
1008
1008
ENDCHAR
STARTCHAR 221
ENCODING 221
SWIDTH 1152 0
DWIDTH 16 0
BBX 15 20 0 -5
BITMAP
0008
0018
006E
001E
0018
0000
0000
0010
0030
0030
0070
0094
001A
0030
3034
F038
C836
ACF0
6FF0
07E0
ENDCHAR
STARTCHAR 222
ENCODING 222
SWIDTH 1152 0
DWIDTH 16 0
BBX 14 19 1 -5
BITMAP
03FC
03FC
01FC
00F8
0070
0050
0050
0070
0050
0070
0070
FC50
F870
F050
E050
60F0
71F0
7FE0
1FC0
ENDCHAR
STARTCHAR 223
ENCODING 223
SWIDTH 1152 0
DWIDTH 16 0
BBX 14 18 1 -5
BITMAP
FE00
5600
2A00
1600
1E00
1600
1A00
1E00
1600
1A00
1A04
1A04
160C
1A7C
15F4
1B2C
3FFC
3FFC
ENDCHAR
STARTCHAR 224
ENCODING 224
SWIDTH 1152 0
DWIDTH 16 0
BBX 14 18 1 -5
BITMAP
FFE0
7FC0
3F80
3F00
3E00
3E00
3E00
3E00
3E00
3E00
3E04
3E0C
3E1C
3E3C
3FFC
3FFC
7FFC
FFFC
ENDCHAR
STARTCHAR 225
ENCODING 225
SWIDTH 1152 0
DWIDTH 16 0
BBX 13 15 1 -5
BITMAP
FFE0
7FF0
3FF0
1C18
1C18
1C18
1C30
1FE0
1800
1800
1800
1800
1800
1000
1000
ENDCHAR
STARTCHAR 226
ENCODING 226
SWIDTH 1152 0
DWIDTH 16 0
BBX 14 17 1 -6
BITMAP
FFE0
7FF8
3E18
1E1C
1E1C
FE1C
7E1C
3E1C
1FF8
1DE0
1C00
1C00
1C00
1C00
1800
1000
1000
ENDCHAR
STARTCHAR 227
ENCODING 227
SWIDTH 1152 0
DWIDTH 16 0
BBX 14 17 1 -6
BITMAP
FFF0
77F8
361C
1E1C
1E1C
E61C
761C
361C
1FFC
FFF8
E6F0
7600
3600
1E00
1E00
0E00
0600
ENDCHAR
STARTCHAR 228
ENCODING 228
SWIDTH 1152 0
DWIDTH 16 0
BBX 13 21 1 -6
BITMAP
8208
0000
4210
0000
0240
FFE0
7FF0
BFF0
5C38
1C38
1C38
1C30
1FE0
1820
1BC0
1A00
1A00
1A00
1A00
1400
0800
ENDCHAR
STARTCHAR 229
ENCODING 229
SWIDTH 1152 0
DWIDTH 16 0
BBX 15 21 0 -6
BITMAP
0F86
18FC
3078
2000
0000
FFFC
7FFE
3FFE
1F0E
0F0E
FF0E
7F0E
3F0E
1FFE
0FFE
FF7C
7F38
3F00
1F00
0F00
0F00
ENDCHAR
STARTCHAR 230
ENCODING 230
SWIDTH 1152 0
DWIDTH 16 0
BBX 13 19 1 -6
BITMAP
1FF0
1FF0
0000
0000
0000
FFE0
7FF0
1C38
1C18
1C18
1C18
1FF0
1FC0
1800
1800
1800
1800
1000
1000
ENDCHAR
STARTCHAR 231
ENCODING 231
SWIDTH 1152 0
DWIDTH 16 0
BBX 14 21 1 -6
BITMAP
3FE0
3FE0
0000
0000
FFE0
7FF8
3E18
1E1C
1E1C
FE1C
7E1C
3E1C
1FF8
1DE0
1C00
1C00
1C00
1C00
1800
1000
1000
ENDCHAR
STARTCHAR 232
ENCODING 232
SWIDTH 1152 0
DWIDTH 16 0
BBX 14 19 1 -5
BITMAP
FFF0
FFF0
FFF8
DFF8
9C3C
1C1C
1C0C
1C0C
1C0C
1FFC
1FFC
1FF8
1C00
1C00
1C00
1C00
1C00
3C00
FC00
ENDCHAR
STARTCHAR 233
ENCODING 233
SWIDTH 1152 0
DWIDTH 16 0
BBX 13 18 2 -5
BITMAP
0040
00C0
01C0
1FC0
3FC0
7FC0
F0C0
E040
E040
F0C0
FFC0
7FC0
3E40
0040
0048
0058
0070
0060
ENDCHAR
STARTCHAR 234
ENCODING 234
SWIDTH 1152 0
DWIDTH 16 0
BBX 15 20 1 -5
BITMAP
8000
C000
EF80
FFE0
7FF0
7CF8
F038
E018
E018
E00C
E00C
E00C
E00C
E18C
60C8
70E8
7878
3FF8
1FFC
0006
ENDCHAR
STARTCHAR 235
ENCODING 235
SWIDTH 1152 0
DWIDTH 16 0
BBX 15 20 1 -5
BITMAP
8004
C00C
EF9C
FFFC
7FF8
7CF8
F038
E018
E018
E00C
E00C
E00C
E00C
E18C
60C8
70E8
7878
3FF8
1FFC
0006
ENDCHAR
STARTCHAR 236
ENCODING 236
SWIDTH 1152 0
DWIDTH 16 0
BBX 15 18 0 -5
BITMAP
C3E0
7FF0
3FF8
1C1C
1C0C
0C0C
0C1C
0FF8
0FF0
0FC0
0CF0
0CF0
0C78
083C
081C
080C
0806
0802
ENDCHAR
STARTCHAR 237
ENCODING 237
SWIDTH 1152 0
DWIDTH 16 0
BBX 14 16 1 -5
BITMAP
0B48
07F0
1FFC
0FFC
1C1C
7E00
1FC0
0FE0
00F0
C060
E0F0
FFE0
FFA0
5B00
88C0
2000
ENDCHAR
STARTCHAR 238
ENCODING 238
SWIDTH 1152 0
DWIDTH 16 0
BBX 14 17 1 -5
BITMAP
07F0
1FF8
1FFC
3C1C
301C
3018
3810
1E00
0FE0
01F8
0078
6038
F078
FFF8
FFF0
1FE0
1F80
ENDCHAR
STARTCHAR 239
ENCODING 239
SWIDTH 1152 0
DWIDTH 16 0
BBX 13 13 1 -4
BITMAP
1040
3060
3060
7070
7070
E038
E038
E038
F078
7FF0
7FF0
3FE0
0F80
ENDCHAR
STARTCHAR 240
ENCODING 240
SWIDTH 1152 0
DWIDTH 16 0
BBX 13 20 2 -5
BITMAP
8000
8000
8000
C000
C1F8
C0F8
C070
E070
E070
E070
E070
E070
E070
E070
E070
E070
E070
7FF0
3FE0
1F80
ENDCHAR
STARTCHAR 241
ENCODING 241
SWIDTH 1152 0
DWIDTH 16 0
BBX 12 20 2 -5
BITMAP
8010
8010
8010
C030
C030
C030
E070
E070
E070
E970
E970
E070
E070
E070
E070
E070
E070
70E0
7FE0
1F80
ENDCHAR
STARTCHAR 242
ENCODING 242
SWIDTH 1152 0
DWIDTH 16 0
BBX 14 21 1 -5
BITMAP
8004
9864
9864
CCCC
C48C
C00C
C30C
E31C
E31C
E01C
E01C
E01C
E01C
E01C
E01C
F03C
F038
7878
7FF0
3FE0
1FC0
ENDCHAR
STARTCHAR 243
ENCODING 243
SWIDTH 1152 0
DWIDTH 16 0
BBX 14 13 1 -4
BITMAP
E01C
E01C
E01C
7038
3030
7878
1860
BCF4
5FE8
0FC0
2FD0
0780
0300
ENDCHAR
STARTCHAR 244
ENCODING 244
SWIDTH 1152 0
DWIDTH 16 0
BBX 15 19 0 -5
BITMAP
6828
1038
0010
0000
0280
6106
700E
700E
300C
1818
BC3C
0C30
5E7A
2FF4
07E0
17E8
03C0
0180
0040
ENDCHAR
STARTCHAR 245
ENCODING 245
SWIDTH 1152 0
DWIDTH 16 0
BBX 15 19 0 -5
BITMAP
0FF0
0FF0
0FF0
0000
0000
700E
700E
700E
300C
1818
BC3C
0C30
5E7A
2FF4
07E0
17E8
03C0
0180
0180
ENDCHAR
STARTCHAR 246
ENCODING 246
SWIDTH 1152 0
DWIDTH 16 0
BBX 15 14 1 -3
BITMAP
4000
A800
A800
FC3E
781C
701C
3018
3018
1898
19D8
1BF8
0E70
0E70
0420
ENDCHAR
STARTCHAR 247
ENCODING 247
SWIDTH 1152 0
DWIDTH 16 0
BBX 14 20 1 -5
BITMAP
8000
8004
8000
C004
C000
C010
C004
E010
E008
E004
F014
F00C
F118
F39C
F7DC
7EFC
7C78
7838
6038
4018
ENDCHAR
STARTCHAR 248
ENCODING 248
SWIDTH 1152 0
DWIDTH 16 0
BBX 14 20 1 -5
BITMAP
80E4
80E4
9C04
C00C
C38C
C38C
C00C
C00C
E01C
E01C
F01C
F01C
F11C
F39C
F7DC
7EFC
7C78
7838
6018
4008
ENDCHAR
STARTCHAR 249
ENCODING 249
SWIDTH 1152 0
DWIDTH 16 0
BBX 15 20 0 -5
BITMAP
8002
8002
8002
8006
C006
C006
C006
E006
E006
E10E
E10E
E10E
E38E
E38E
E7CE
EFEE
FE7E
FC3E
F01E
E00E
ENDCHAR
STARTCHAR 250
ENCODING 250
SWIDTH 1152 0
DWIDTH 16 0
BBX 14 11 1 -3
BITMAP
3FF8
7FF0
E0F0
C0E0
83C0
0780
0F00
1E04
3FFC
7FF8
FFF0
ENDCHAR
STARTCHAR 251
ENCODING 251
SWIDTH 1152 0
DWIDTH 16 0
BBX 11 15 2 -2
BITMAP
FFE0
FFE0
C060
8060
00E0
01C0
0380
0700
0E00
1C00
3800
7020
F060
FFE0
FFE0
ENDCHAR
STARTCHAR 252
ENCODING 252
SWIDTH 1152 0
DWIDTH 16 0
BBX 16 19 0 -6
BITMAP
3FFC
3FFC
381C
FE1C
7C1C
3838
1070
00E0
01C0
0380
0700
0E00
1E00
1FFC
1FFC
0004
001F
000E
0004
ENDCHAR
STARTCHAR 253
ENCODING 253
SWIDTH 1152 0
DWIDTH 16 0
BBX 11 18 3 -5
BITMAP
FFE0
C920
9A60
FFE0
00E0
01C0
0360
06C0
0F80
1B00
3600
7C00
D800
F000
7FE0
E5A0
9A60
FFE0
ENDCHAR
STARTCHAR 254
ENCODING 254
SWIDTH 1152 0
DWIDTH 16 0
BBX 16 19 0 -5
BITMAP
FFFF
7FFF
3FFF
1FFF
0FFF
003F
007E
00FC
01F8
03F0
07E0
0FC0
1F80
3F00
7FF0
7FF8
7FFC
7FFE
7FFF
ENDCHAR
STARTCHAR 255
ENCODING 255
SWIDTH 1152 0
DWIDTH 16 0
BBX 15 18 1 -5
BITMAP
3038
787C
FFFC
CF8C
801C
0078
0070
00E0
00C0
01C0
0F80
1F00
3C00
70C2
F3E6
FFFC
7C18
3000
ENDCHAR
ENDFONT
